<?xml version="1.0" encoding="UTF-8"?>
<!-- Generated by TimingDrawer (http://timingdrawer.sourceforge.net) -->
<svg version="1.1" xmlns="http://www.w3.org/2000/svg" xmlns:xlink="http://www.w3.org/1999/xlink" width="474pt" height="130pt" viewBox="0 0 474 130">
<path d="M 0,0 L 474,0 L 474,130 L 0,130 L 0,0" fill="#FFFFFF" stroke="none" stroke-width="1"/>
<path d="M 274,2 L 274,130" stroke="#A9A9A9" stroke-width="1"/>
<path d="M 454,2 L 454,130" stroke="#A9A9A9" stroke-width="1"/>
<path d="M 364,2 L 364,130" stroke="#A9A9A9" stroke-width="1"/>
<path d="M 94,2 L 94,130" stroke="#A9A9A9" stroke-width="1"/>
<path d="M 184,2 L 184,130" stroke="#A9A9A9" stroke-width="1"/>
<text x="2" y="17" fill="#000000" font-size="12" font-family="Helvetica">Clk</text>
<path d="M 58,21 L 92,21" stroke="#000000" stroke-width="1"/>
<path d="M 92,21 L 94,13" stroke="#000000" stroke-width="1"/>
<path d="M 94,13 L 96,5" stroke="#000000" stroke-width="1"/>
<path d="M 96,5 L 128,5" stroke="#000000" stroke-width="1"/>
<path d="M 128,5 L 130,13" stroke="#000000" stroke-width="1"/>
<path d="M 130,13 L 132,21" stroke="#000000" stroke-width="1"/>
<path d="M 132,21 L 182,21" stroke="#000000" stroke-width="1"/>
<path d="M 182,21 L 184,13" stroke="#000000" stroke-width="1"/>
<path d="M 184,13 L 186,5" stroke="#000000" stroke-width="1"/>
<path d="M 186,5 L 218,5" stroke="#000000" stroke-width="1"/>
<path d="M 218,5 L 220,13" stroke="#000000" stroke-width="1"/>
<path d="M 220,13 L 222,21" stroke="#000000" stroke-width="1"/>
<path d="M 222,21 L 272,21" stroke="#000000" stroke-width="1"/>
<path d="M 272,21 L 274,13" stroke="#000000" stroke-width="1"/>
<path d="M 274,13 L 276,5" stroke="#000000" stroke-width="1"/>
<path d="M 276,5 L 308,5" stroke="#000000" stroke-width="1"/>
<path d="M 308,5 L 310,13" stroke="#000000" stroke-width="1"/>
<path d="M 310,13 L 312,21" stroke="#000000" stroke-width="1"/>
<path d="M 312,21 L 362,21" stroke="#000000" stroke-width="1"/>
<path d="M 362,21 L 364,13" stroke="#000000" stroke-width="1"/>
<path d="M 364,13 L 366,5" stroke="#000000" stroke-width="1"/>
<path d="M 366,5 L 398,5" stroke="#000000" stroke-width="1"/>
<path d="M 398,5 L 400,13" stroke="#000000" stroke-width="1"/>
<path d="M 400,13 L 402,21" stroke="#000000" stroke-width="1"/>
<path d="M 402,21 L 452,21" stroke="#000000" stroke-width="1"/>
<path d="M 452,21 L 454,13" stroke="#000000" stroke-width="1"/>
<path d="M 454,13 L 456,5" stroke="#000000" stroke-width="1"/>
<path d="M 456,5 L 472,5" stroke="#000000" stroke-width="1"/>
<text x="2" y="43" fill="#000000" font-size="12" font-family="Helvetica">Buffer</text>
<path d="M 58,39 L 60,31 L 272,31 L 274,39 L 272,47 L 60,47 L 58,39" fill="none" stroke="#000000" stroke-width="1"/>
<text x="60" y="43" fill="#000000" font-size="12" font-family="Helvetica">D1/D0</text>
<path d="M 274,39 L 276,31 L 452,31 L 454,39 L 452,47 L 276,47 L 274,39" fill="none" stroke="#000000" stroke-width="1"/>
<text x="276" y="43" fill="#000000" font-size="12" font-family="Helvetica">D1</text>
<path d="M 454,39 L 456,31 L 470,31 L 472,39 L 470,47 L 456,47 L 454,39" fill="none" stroke="#000000" stroke-width="1"/>
<path d="M 456,31 L 459,47" stroke="#000000" stroke-width="1"/>
<path d="M 456,47 L 459,31" stroke="#000000" stroke-width="1"/>
<path d="M 459,31 L 463,47" stroke="#000000" stroke-width="1"/>
<path d="M 459,47 L 463,31" stroke="#000000" stroke-width="1"/>
<path d="M 463,31 L 466,47" stroke="#000000" stroke-width="1"/>
<path d="M 463,47 L 466,31" stroke="#000000" stroke-width="1"/>
<path d="M 466,31 L 470,47" stroke="#000000" stroke-width="1"/>
<path d="M 466,47 L 470,31" stroke="#000000" stroke-width="1"/>
<text x="2" y="69" fill="#000000" font-size="12" font-family="Helvetica">Rd_ack</text>
<path d="M 58,73 L 146,73" stroke="#000000" stroke-width="1"/>
<path d="M 146,73 L 148,65" stroke="#000000" stroke-width="1"/>
<path d="M 148,65 L 150,57" stroke="#000000" stroke-width="1"/>
<path d="M 150,57 L 184,57" stroke="#000000" stroke-width="1"/>
<path d="M 184,57 L 218,57" stroke="#000000" stroke-width="1"/>
<path d="M 218,57 L 220,65" stroke="#000000" stroke-width="1"/>
<path d="M 220,65 L 222,73" stroke="#000000" stroke-width="1"/>
<path d="M 222,73 L 326,73" stroke="#000000" stroke-width="1"/>
<path d="M 326,73 L 328,65" stroke="#000000" stroke-width="1"/>
<path d="M 328,65 L 330,57" stroke="#000000" stroke-width="1"/>
<path d="M 330,57 L 364,57" stroke="#000000" stroke-width="1"/>
<path d="M 364,57 L 398,57" stroke="#000000" stroke-width="1"/>
<path d="M 398,57 L 400,65" stroke="#000000" stroke-width="1"/>
<path d="M 400,65 L 402,73" stroke="#000000" stroke-width="1"/>
<path d="M 402,73 L 472,73" stroke="#000000" stroke-width="1"/>
<text x="2" y="95" fill="#000000" font-size="12" font-family="Helvetica">D_in</text>
<path d="M 58,91 L 60,83 L 272,83 L 274,91 L 272,99 L 60,99 L 58,91" fill="none" stroke="#000000" stroke-width="1"/>
<text x="60" y="95" fill="#000000" font-size="12" font-family="Helvetica">D0</text>
<path d="M 274,91 L 276,83 L 452,83 L 454,91 L 452,99 L 276,99 L 274,91" fill="none" stroke="#000000" stroke-width="1"/>
<text x="276" y="95" fill="#000000" font-size="12" font-family="Helvetica">D1</text>
<path d="M 454,91 L 456,83 L 470,83 L 472,91 L 470,99 L 456,99 L 454,91" fill="none" stroke="#000000" stroke-width="1"/>
<path d="M 456,83 L 459,99" stroke="#000000" stroke-width="1"/>
<path d="M 456,99 L 459,83" stroke="#000000" stroke-width="1"/>
<path d="M 459,83 L 463,99" stroke="#000000" stroke-width="1"/>
<path d="M 459,99 L 463,83" stroke="#000000" stroke-width="1"/>
<path d="M 463,83 L 466,99" stroke="#000000" stroke-width="1"/>
<path d="M 463,99 L 466,83" stroke="#000000" stroke-width="1"/>
<path d="M 466,83 L 470,99" stroke="#000000" stroke-width="1"/>
<path d="M 466,99 L 470,83" stroke="#000000" stroke-width="1"/>
<text x="2" y="121" fill="#000000" font-size="12" font-family="Helvetica">Exists</text>
<path d="M 58,109 L 452,109" stroke="#000000" stroke-width="1"/>
<path d="M 452,109 L 454,117" stroke="#000000" stroke-width="1"/>
<path d="M 454,117 L 456,125" stroke="#000000" stroke-width="1"/>
<path d="M 456,125 L 472,125" stroke="#000000" stroke-width="1"/>
<path d="M 184,65 C 228,91 228,91 272,91" fill="none" stroke="#0000FF" stroke-width="1"/>
<path d="M 272,91 L 267,89 L 269,91 L 267,93 L 272,91" fill="#0000FF" stroke="#0000FF" stroke-width="1"/>
<path d="M 364,65 C 408,91 408,91 452,91" fill="none" stroke="#0000FF" stroke-width="1"/>
<path d="M 452,91 L 447,89 L 449,91 L 447,93 L 452,91" fill="#0000FF" stroke="#0000FF" stroke-width="1"/>
<path d="M 364,65 C 408,117 408,117 452,117" fill="none" stroke="#0000FF" stroke-width="1"/>
<path d="M 452,117 L 447,115 L 449,117 L 447,119 L 452,117" fill="#0000FF" stroke="#0000FF" stroke-width="1"/>
</svg>
