<?xml version="1.0" encoding="UTF-8"?>
<!-- Generated by TimingDrawer (http://timingdrawer.sourceforge.net) -->
<svg version="1.1" xmlns="http://www.w3.org/2000/svg" xmlns:xlink="http://www.w3.org/1999/xlink" width="474pt" height="130pt" viewBox="0 0 474 130">
<path d="M 0,0 L 474,0 L 474,130 L 0,130 L 0,0" fill="#FFFFFF" stroke="none" stroke-width="1"/>
<path d="M 274,2 L 274,130" stroke="#A9A9A9" stroke-width="1"/>
<path d="M 454,2 L 454,130" stroke="#A9A9A9" stroke-width="1"/>
<path d="M 364,2 L 364,130" stroke="#A9A9A9" stroke-width="1"/>
<path d="M 94,2 L 94,130" stroke="#A9A9A9" stroke-width="1"/>
<path d="M 184,2 L 184,130" stroke="#A9A9A9" stroke-width="1"/>
<text x="2" y="17" fill="#000000" font-size="12" font-family="Helvetica">Clk</text>
<path d="M 58,21 L 92,21" stroke="#000000" stroke-width="1"/>
<path d="M 92,21 L 94,13" stroke="#000000" stroke-width="1"/>
<path d="M 94,13 L 96,5" stroke="#000000" stroke-width="1"/>
<path d="M 96,5 L 128,5" stroke="#000000" stroke-width="1"/>
<path d="M 128,5 L 130,13" stroke="#000000" stroke-width="1"/>
<path d="M 130,13 L 132,21" stroke="#000000" stroke-width="1"/>
<path d="M 132,21 L 182,21" stroke="#000000" stroke-width="1"/>
<path d="M 182,21 L 184,13" stroke="#000000" stroke-width="1"/>
<path d="M 184,13 L 186,5" stroke="#000000" stroke-width="1"/>
<path d="M 186,5 L 218,5" stroke="#000000" stroke-width="1"/>
<path d="M 218,5 L 220,13" stroke="#000000" stroke-width="1"/>
<path d="M 220,13 L 222,21" stroke="#000000" stroke-width="1"/>
<path d="M 222,21 L 272,21" stroke="#000000" stroke-width="1"/>
<path d="M 272,21 L 274,13" stroke="#000000" stroke-width="1"/>
<path d="M 274,13 L 276,5" stroke="#000000" stroke-width="1"/>
<path d="M 276,5 L 308,5" stroke="#000000" stroke-width="1"/>
<path d="M 308,5 L 310,13" stroke="#000000" stroke-width="1"/>
<path d="M 310,13 L 312,21" stroke="#000000" stroke-width="1"/>
<path d="M 312,21 L 362,21" stroke="#000000" stroke-width="1"/>
<path d="M 362,21 L 364,13" stroke="#000000" stroke-width="1"/>
<path d="M 364,13 L 366,5" stroke="#000000" stroke-width="1"/>
<path d="M 366,5 L 398,5" stroke="#000000" stroke-width="1"/>
<path d="M 398,5 L 400,13" stroke="#000000" stroke-width="1"/>
<path d="M 400,13 L 402,21" stroke="#000000" stroke-width="1"/>
<path d="M 402,21 L 452,21" stroke="#000000" stroke-width="1"/>
<path d="M 452,21 L 454,13" stroke="#000000" stroke-width="1"/>
<path d="M 454,13 L 456,5" stroke="#000000" stroke-width="1"/>
<path d="M 456,5 L 472,5" stroke="#000000" stroke-width="1"/>
<text x="2" y="43" fill="#000000" font-size="12" font-family="Helvetica">D_out</text>
<path d="M 58,39 L 60,31 L 110,31 L 112,39 L 110,47 L 60,47 L 58,39" fill="none" stroke="#000000" stroke-width="1"/>
<path d="M 60,31 L 63,47" stroke="#000000" stroke-width="1"/>
<path d="M 60,47 L 63,31" stroke="#000000" stroke-width="1"/>
<path d="M 63,31 L 67,47" stroke="#000000" stroke-width="1"/>
<path d="M 63,47 L 67,31" stroke="#000000" stroke-width="1"/>
<path d="M 67,31 L 71,47" stroke="#000000" stroke-width="1"/>
<path d="M 67,47 L 71,31" stroke="#000000" stroke-width="1"/>
<path d="M 71,31 L 75,47" stroke="#000000" stroke-width="1"/>
<path d="M 71,47 L 75,31" stroke="#000000" stroke-width="1"/>
<path d="M 75,31 L 79,47" stroke="#000000" stroke-width="1"/>
<path d="M 75,47 L 79,31" stroke="#000000" stroke-width="1"/>
<path d="M 79,31 L 83,47" stroke="#000000" stroke-width="1"/>
<path d="M 79,47 L 83,31" stroke="#000000" stroke-width="1"/>
<path d="M 83,31 L 86,47" stroke="#000000" stroke-width="1"/>
<path d="M 83,47 L 86,31" stroke="#000000" stroke-width="1"/>
<path d="M 86,31 L 90,47" stroke="#000000" stroke-width="1"/>
<path d="M 86,47 L 90,31" stroke="#000000" stroke-width="1"/>
<path d="M 90,31 L 94,47" stroke="#000000" stroke-width="1"/>
<path d="M 90,47 L 94,31" stroke="#000000" stroke-width="1"/>
<path d="M 94,31 L 98,47" stroke="#000000" stroke-width="1"/>
<path d="M 94,47 L 98,31" stroke="#000000" stroke-width="1"/>
<path d="M 98,31 L 102,47" stroke="#000000" stroke-width="1"/>
<path d="M 98,47 L 102,31" stroke="#000000" stroke-width="1"/>
<path d="M 102,31 L 106,47" stroke="#000000" stroke-width="1"/>
<path d="M 102,47 L 106,31" stroke="#000000" stroke-width="1"/>
<path d="M 106,31 L 110,47" stroke="#000000" stroke-width="1"/>
<path d="M 106,47 L 110,31" stroke="#000000" stroke-width="1"/>
<path d="M 112,39 L 114,31 L 200,31 L 202,39 L 200,47 L 114,47 L 112,39" fill="none" stroke="#000000" stroke-width="1"/>
<text x="114" y="43" fill="#000000" font-size="12" font-family="Helvetica">D0</text>
<path d="M 202,39 L 204,31 L 290,31 L 292,39 L 290,47 L 204,47 L 202,39" fill="none" stroke="#000000" stroke-width="1"/>
<text x="204" y="43" fill="#000000" font-size="12" font-family="Helvetica">D1</text>
<path d="M 292,39 L 294,31 L 470,31 L 472,39 L 470,47 L 294,47 L 292,39" fill="none" stroke="#000000" stroke-width="1"/>
<path d="M 294,31 L 298,47" stroke="#000000" stroke-width="1"/>
<path d="M 294,47 L 298,31" stroke="#000000" stroke-width="1"/>
<path d="M 298,31 L 302,47" stroke="#000000" stroke-width="1"/>
<path d="M 298,47 L 302,31" stroke="#000000" stroke-width="1"/>
<path d="M 302,31 L 306,47" stroke="#000000" stroke-width="1"/>
<path d="M 302,47 L 306,31" stroke="#000000" stroke-width="1"/>
<path d="M 306,31 L 310,47" stroke="#000000" stroke-width="1"/>
<path d="M 306,47 L 310,31" stroke="#000000" stroke-width="1"/>
<path d="M 310,31 L 314,47" stroke="#000000" stroke-width="1"/>
<path d="M 310,47 L 314,31" stroke="#000000" stroke-width="1"/>
<path d="M 314,31 L 318,47" stroke="#000000" stroke-width="1"/>
<path d="M 314,47 L 318,31" stroke="#000000" stroke-width="1"/>
<path d="M 318,31 L 322,47" stroke="#000000" stroke-width="1"/>
<path d="M 318,47 L 322,31" stroke="#000000" stroke-width="1"/>
<path d="M 322,31 L 326,47" stroke="#000000" stroke-width="1"/>
<path d="M 322,47 L 326,31" stroke="#000000" stroke-width="1"/>
<path d="M 326,31 L 330,47" stroke="#000000" stroke-width="1"/>
<path d="M 326,47 L 330,31" stroke="#000000" stroke-width="1"/>
<path d="M 330,31 L 334,47" stroke="#000000" stroke-width="1"/>
<path d="M 330,47 L 334,31" stroke="#000000" stroke-width="1"/>
<path d="M 334,31 L 338,47" stroke="#000000" stroke-width="1"/>
<path d="M 334,47 L 338,31" stroke="#000000" stroke-width="1"/>
<path d="M 338,31 L 342,47" stroke="#000000" stroke-width="1"/>
<path d="M 338,47 L 342,31" stroke="#000000" stroke-width="1"/>
<path d="M 342,31 L 346,47" stroke="#000000" stroke-width="1"/>
<path d="M 342,47 L 346,31" stroke="#000000" stroke-width="1"/>
<path d="M 346,31 L 350,47" stroke="#000000" stroke-width="1"/>
<path d="M 346,47 L 350,31" stroke="#000000" stroke-width="1"/>
<path d="M 350,31 L 354,47" stroke="#000000" stroke-width="1"/>
<path d="M 350,47 L 354,31" stroke="#000000" stroke-width="1"/>
<path d="M 354,31 L 358,47" stroke="#000000" stroke-width="1"/>
<path d="M 354,47 L 358,31" stroke="#000000" stroke-width="1"/>
<path d="M 358,31 L 362,47" stroke="#000000" stroke-width="1"/>
<path d="M 358,47 L 362,31" stroke="#000000" stroke-width="1"/>
<path d="M 362,31 L 366,47" stroke="#000000" stroke-width="1"/>
<path d="M 362,47 L 366,31" stroke="#000000" stroke-width="1"/>
<path d="M 366,31 L 370,47" stroke="#000000" stroke-width="1"/>
<path d="M 366,47 L 370,31" stroke="#000000" stroke-width="1"/>
<path d="M 370,31 L 374,47" stroke="#000000" stroke-width="1"/>
<path d="M 370,47 L 374,31" stroke="#000000" stroke-width="1"/>
<path d="M 374,31 L 378,47" stroke="#000000" stroke-width="1"/>
<path d="M 374,47 L 378,31" stroke="#000000" stroke-width="1"/>
<path d="M 378,31 L 382,47" stroke="#000000" stroke-width="1"/>
<path d="M 378,47 L 382,31" stroke="#000000" stroke-width="1"/>
<path d="M 382,31 L 386,47" stroke="#000000" stroke-width="1"/>
<path d="M 382,47 L 386,31" stroke="#000000" stroke-width="1"/>
<path d="M 386,31 L 390,47" stroke="#000000" stroke-width="1"/>
<path d="M 386,47 L 390,31" stroke="#000000" stroke-width="1"/>
<path d="M 390,31 L 394,47" stroke="#000000" stroke-width="1"/>
<path d="M 390,47 L 394,31" stroke="#000000" stroke-width="1"/>
<path d="M 394,31 L 398,47" stroke="#000000" stroke-width="1"/>
<path d="M 394,47 L 398,31" stroke="#000000" stroke-width="1"/>
<path d="M 398,31 L 402,47" stroke="#000000" stroke-width="1"/>
<path d="M 398,47 L 402,31" stroke="#000000" stroke-width="1"/>
<path d="M 402,31 L 406,47" stroke="#000000" stroke-width="1"/>
<path d="M 402,47 L 406,31" stroke="#000000" stroke-width="1"/>
<path d="M 406,31 L 410,47" stroke="#000000" stroke-width="1"/>
<path d="M 406,47 L 410,31" stroke="#000000" stroke-width="1"/>
<path d="M 410,31 L 414,47" stroke="#000000" stroke-width="1"/>
<path d="M 410,47 L 414,31" stroke="#000000" stroke-width="1"/>
<path d="M 414,31 L 418,47" stroke="#000000" stroke-width="1"/>
<path d="M 414,47 L 418,31" stroke="#000000" stroke-width="1"/>
<path d="M 418,31 L 422,47" stroke="#000000" stroke-width="1"/>
<path d="M 418,47 L 422,31" stroke="#000000" stroke-width="1"/>
<path d="M 422,31 L 426,47" stroke="#000000" stroke-width="1"/>
<path d="M 422,47 L 426,31" stroke="#000000" stroke-width="1"/>
<path d="M 426,31 L 430,47" stroke="#000000" stroke-width="1"/>
<path d="M 426,47 L 430,31" stroke="#000000" stroke-width="1"/>
<path d="M 430,31 L 434,47" stroke="#000000" stroke-width="1"/>
<path d="M 430,47 L 434,31" stroke="#000000" stroke-width="1"/>
<path d="M 434,31 L 438,47" stroke="#000000" stroke-width="1"/>
<path d="M 434,47 L 438,31" stroke="#000000" stroke-width="1"/>
<path d="M 438,31 L 442,47" stroke="#000000" stroke-width="1"/>
<path d="M 438,47 L 442,31" stroke="#000000" stroke-width="1"/>
<path d="M 442,31 L 446,47" stroke="#000000" stroke-width="1"/>
<path d="M 442,47 L 446,31" stroke="#000000" stroke-width="1"/>
<path d="M 446,31 L 450,47" stroke="#000000" stroke-width="1"/>
<path d="M 446,47 L 450,31" stroke="#000000" stroke-width="1"/>
<path d="M 450,31 L 454,47" stroke="#000000" stroke-width="1"/>
<path d="M 450,47 L 454,31" stroke="#000000" stroke-width="1"/>
<path d="M 454,31 L 458,47" stroke="#000000" stroke-width="1"/>
<path d="M 454,47 L 458,31" stroke="#000000" stroke-width="1"/>
<path d="M 458,31 L 462,47" stroke="#000000" stroke-width="1"/>
<path d="M 458,47 L 462,31" stroke="#000000" stroke-width="1"/>
<path d="M 462,31 L 466,47" stroke="#000000" stroke-width="1"/>
<path d="M 462,47 L 466,31" stroke="#000000" stroke-width="1"/>
<path d="M 466,31 L 470,47" stroke="#000000" stroke-width="1"/>
<path d="M 466,47 L 470,31" stroke="#000000" stroke-width="1"/>
<text x="2" y="69" fill="#000000" font-size="12" font-family="Helvetica">Wr_en</text>
<path d="M 58,73 L 110,73" stroke="#000000" stroke-width="1"/>
<path d="M 110,73 L 112,65" stroke="#000000" stroke-width="1"/>
<path d="M 112,65 L 114,57" stroke="#000000" stroke-width="1"/>
<path d="M 114,57 L 184,57" stroke="#000000" stroke-width="1"/>
<path d="M 184,57 L 274,57" stroke="#000000" stroke-width="1"/>
<path d="M 274,57 L 290,57" stroke="#000000" stroke-width="1"/>
<path d="M 290,57 L 292,65" stroke="#000000" stroke-width="1"/>
<path d="M 292,65 L 294,73" stroke="#000000" stroke-width="1"/>
<path d="M 294,73 L 472,73" stroke="#000000" stroke-width="1"/>
<text x="2" y="95" fill="#000000" font-size="12" font-family="Helvetica">Full</text>
<path d="M 58,99 L 472,99" stroke="#000000" stroke-width="1"/>
<text x="2" y="121" fill="#000000" font-size="12" font-family="Helvetica">Buffer</text>
<path d="M 58,117 L 60,109 L 272,109 L 274,117 L 272,125 L 60,125 L 58,117" fill="none" stroke="#000000" stroke-width="1"/>
<path d="M 60,109 L 64,125" stroke="#000000" stroke-width="1"/>
<path d="M 60,125 L 64,109" stroke="#000000" stroke-width="1"/>
<path d="M 64,109 L 68,125" stroke="#000000" stroke-width="1"/>
<path d="M 64,125 L 68,109" stroke="#000000" stroke-width="1"/>
<path d="M 68,109 L 72,125" stroke="#000000" stroke-width="1"/>
<path d="M 68,125 L 72,109" stroke="#000000" stroke-width="1"/>
<path d="M 72,109 L 76,125" stroke="#000000" stroke-width="1"/>
<path d="M 72,125 L 76,109" stroke="#000000" stroke-width="1"/>
<path d="M 76,109 L 80,125" stroke="#000000" stroke-width="1"/>
<path d="M 76,125 L 80,109" stroke="#000000" stroke-width="1"/>
<path d="M 80,109 L 84,125" stroke="#000000" stroke-width="1"/>
<path d="M 80,125 L 84,109" stroke="#000000" stroke-width="1"/>
<path d="M 84,109 L 88,125" stroke="#000000" stroke-width="1"/>
<path d="M 84,125 L 88,109" stroke="#000000" stroke-width="1"/>
<path d="M 88,109 L 92,125" stroke="#000000" stroke-width="1"/>
<path d="M 88,125 L 92,109" stroke="#000000" stroke-width="1"/>
<path d="M 92,109 L 96,125" stroke="#000000" stroke-width="1"/>
<path d="M 92,125 L 96,109" stroke="#000000" stroke-width="1"/>
<path d="M 96,109 L 100,125" stroke="#000000" stroke-width="1"/>
<path d="M 96,125 L 100,109" stroke="#000000" stroke-width="1"/>
<path d="M 100,109 L 104,125" stroke="#000000" stroke-width="1"/>
<path d="M 100,125 L 104,109" stroke="#000000" stroke-width="1"/>
<path d="M 104,109 L 108,125" stroke="#000000" stroke-width="1"/>
<path d="M 104,125 L 108,109" stroke="#000000" stroke-width="1"/>
<path d="M 108,109 L 112,125" stroke="#000000" stroke-width="1"/>
<path d="M 108,125 L 112,109" stroke="#000000" stroke-width="1"/>
<path d="M 112,109 L 116,125" stroke="#000000" stroke-width="1"/>
<path d="M 112,125 L 116,109" stroke="#000000" stroke-width="1"/>
<path d="M 116,109 L 120,125" stroke="#000000" stroke-width="1"/>
<path d="M 116,125 L 120,109" stroke="#000000" stroke-width="1"/>
<path d="M 120,109 L 124,125" stroke="#000000" stroke-width="1"/>
<path d="M 120,125 L 124,109" stroke="#000000" stroke-width="1"/>
<path d="M 124,109 L 128,125" stroke="#000000" stroke-width="1"/>
<path d="M 124,125 L 128,109" stroke="#000000" stroke-width="1"/>
<path d="M 128,109 L 132,125" stroke="#000000" stroke-width="1"/>
<path d="M 128,125 L 132,109" stroke="#000000" stroke-width="1"/>
<path d="M 132,109 L 136,125" stroke="#000000" stroke-width="1"/>
<path d="M 132,125 L 136,109" stroke="#000000" stroke-width="1"/>
<path d="M 136,109 L 140,125" stroke="#000000" stroke-width="1"/>
<path d="M 136,125 L 140,109" stroke="#000000" stroke-width="1"/>
<path d="M 140,109 L 144,125" stroke="#000000" stroke-width="1"/>
<path d="M 140,125 L 144,109" stroke="#000000" stroke-width="1"/>
<path d="M 144,109 L 148,125" stroke="#000000" stroke-width="1"/>
<path d="M 144,125 L 148,109" stroke="#000000" stroke-width="1"/>
<path d="M 148,109 L 152,125" stroke="#000000" stroke-width="1"/>
<path d="M 148,125 L 152,109" stroke="#000000" stroke-width="1"/>
<path d="M 152,109 L 156,125" stroke="#000000" stroke-width="1"/>
<path d="M 152,125 L 156,109" stroke="#000000" stroke-width="1"/>
<path d="M 156,109 L 160,125" stroke="#000000" stroke-width="1"/>
<path d="M 156,125 L 160,109" stroke="#000000" stroke-width="1"/>
<path d="M 160,109 L 164,125" stroke="#000000" stroke-width="1"/>
<path d="M 160,125 L 164,109" stroke="#000000" stroke-width="1"/>
<path d="M 164,109 L 168,125" stroke="#000000" stroke-width="1"/>
<path d="M 164,125 L 168,109" stroke="#000000" stroke-width="1"/>
<path d="M 168,109 L 172,125" stroke="#000000" stroke-width="1"/>
<path d="M 168,125 L 172,109" stroke="#000000" stroke-width="1"/>
<path d="M 172,109 L 176,125" stroke="#000000" stroke-width="1"/>
<path d="M 172,125 L 176,109" stroke="#000000" stroke-width="1"/>
<path d="M 176,109 L 180,125" stroke="#000000" stroke-width="1"/>
<path d="M 176,125 L 180,109" stroke="#000000" stroke-width="1"/>
<path d="M 180,109 L 184,125" stroke="#000000" stroke-width="1"/>
<path d="M 180,125 L 184,109" stroke="#000000" stroke-width="1"/>
<path d="M 184,109 L 188,125" stroke="#000000" stroke-width="1"/>
<path d="M 184,125 L 188,109" stroke="#000000" stroke-width="1"/>
<path d="M 188,109 L 192,125" stroke="#000000" stroke-width="1"/>
<path d="M 188,125 L 192,109" stroke="#000000" stroke-width="1"/>
<path d="M 192,109 L 196,125" stroke="#000000" stroke-width="1"/>
<path d="M 192,125 L 196,109" stroke="#000000" stroke-width="1"/>
<path d="M 196,109 L 200,125" stroke="#000000" stroke-width="1"/>
<path d="M 196,125 L 200,109" stroke="#000000" stroke-width="1"/>
<path d="M 200,109 L 204,125" stroke="#000000" stroke-width="1"/>
<path d="M 200,125 L 204,109" stroke="#000000" stroke-width="1"/>
<path d="M 204,109 L 208,125" stroke="#000000" stroke-width="1"/>
<path d="M 204,125 L 208,109" stroke="#000000" stroke-width="1"/>
<path d="M 208,109 L 212,125" stroke="#000000" stroke-width="1"/>
<path d="M 208,125 L 212,109" stroke="#000000" stroke-width="1"/>
<path d="M 212,109 L 216,125" stroke="#000000" stroke-width="1"/>
<path d="M 212,125 L 216,109" stroke="#000000" stroke-width="1"/>
<path d="M 216,109 L 220,125" stroke="#000000" stroke-width="1"/>
<path d="M 216,125 L 220,109" stroke="#000000" stroke-width="1"/>
<path d="M 220,109 L 224,125" stroke="#000000" stroke-width="1"/>
<path d="M 220,125 L 224,109" stroke="#000000" stroke-width="1"/>
<path d="M 224,109 L 228,125" stroke="#000000" stroke-width="1"/>
<path d="M 224,125 L 228,109" stroke="#000000" stroke-width="1"/>
<path d="M 228,109 L 232,125" stroke="#000000" stroke-width="1"/>
<path d="M 228,125 L 232,109" stroke="#000000" stroke-width="1"/>
<path d="M 232,109 L 236,125" stroke="#000000" stroke-width="1"/>
<path d="M 232,125 L 236,109" stroke="#000000" stroke-width="1"/>
<path d="M 236,109 L 240,125" stroke="#000000" stroke-width="1"/>
<path d="M 236,125 L 240,109" stroke="#000000" stroke-width="1"/>
<path d="M 240,109 L 244,125" stroke="#000000" stroke-width="1"/>
<path d="M 240,125 L 244,109" stroke="#000000" stroke-width="1"/>
<path d="M 244,109 L 248,125" stroke="#000000" stroke-width="1"/>
<path d="M 244,125 L 248,109" stroke="#000000" stroke-width="1"/>
<path d="M 248,109 L 252,125" stroke="#000000" stroke-width="1"/>
<path d="M 248,125 L 252,109" stroke="#000000" stroke-width="1"/>
<path d="M 252,109 L 256,125" stroke="#000000" stroke-width="1"/>
<path d="M 252,125 L 256,109" stroke="#000000" stroke-width="1"/>
<path d="M 256,109 L 260,125" stroke="#000000" stroke-width="1"/>
<path d="M 256,125 L 260,109" stroke="#000000" stroke-width="1"/>
<path d="M 260,109 L 264,125" stroke="#000000" stroke-width="1"/>
<path d="M 260,125 L 264,109" stroke="#000000" stroke-width="1"/>
<path d="M 264,109 L 268,125" stroke="#000000" stroke-width="1"/>
<path d="M 264,125 L 268,109" stroke="#000000" stroke-width="1"/>
<path d="M 268,109 L 272,125" stroke="#000000" stroke-width="1"/>
<path d="M 268,125 L 272,109" stroke="#000000" stroke-width="1"/>
<path d="M 274,117 L 276,109 L 362,109 L 364,117 L 362,125 L 276,125 L 274,117" fill="none" stroke="#000000" stroke-width="1"/>
<text x="276" y="121" fill="#000000" font-size="12" font-family="Helvetica">D0</text>
<path d="M 364,117 L 366,109 L 470,109 L 472,117 L 470,125 L 366,125 L 364,117" fill="none" stroke="#000000" stroke-width="1"/>
<text x="366" y="121" fill="#000000" font-size="12" font-family="Helvetica">D1/D0</text>
<path d="M 184,65 C 228,117 228,117 272,117" fill="none" stroke="#0000FF" stroke-width="1"/>
<path d="M 272,117 L 267,115 L 269,117 L 267,119 L 272,117" fill="#0000FF" stroke="#0000FF" stroke-width="1"/>
<path d="M 274,65 C 318,117 318,117 362,117" fill="none" stroke="#0000FF" stroke-width="1"/>
<path d="M 362,117 L 357,115 L 359,117 L 357,119 L 362,117" fill="#0000FF" stroke="#0000FF" stroke-width="1"/>
</svg>
