<?xml version="1.0" encoding="UTF-8" standalone="yes"?><svg xmlns="http://www.w3.org/2000/svg" xmlns:xlink="http://www.w3.org/1999/xlink" height="849pt" style="width:926px;height:849px;" version="1.1" viewBox="0 0 926 849" width="926pt"><defs><filter height="300%" id="f1" width="300%" x="-1" y="-1"><feGaussianBlur result="blurOut" stdDeviation="2.0"/><feColorMatrix in="blurOut" result="blurOut2" type="matrix" values="0 0 0 0 0 0 0 0 0 0 0 0 0 0 0 0 0 0 .4 0"/><feOffset dx="4.0" dy="4.0" in="blurOut2" result="blurOut3"/><feBlend in="SourceGraphic" in2="blurOut3" mode="normal"/></filter></defs><g><ellipse cx="530.211" cy="18" fill="#000000" filter="url(#f1)" rx="10" ry="10" style="stroke: none; stroke-width: 1.0;"/><rect fill="#FEFECE" filter="url(#f1)" height="40" rx="12.5" ry="12.5" style="stroke: #A80036; stroke-width: 1.5;" width="66" x="497.211" y="90"/><text fill="#000000" font-family="sans-serif" font-size="14" lengthAdjust="spacingAndGlyphs" textLength="56" x="502.211" y="114.8467">S_read1</text><rect fill="#FEFECE" filter="url(#f1)" height="40" rx="12.5" ry="12.5" style="stroke: #A80036; stroke-width: 1.5;" width="59" x="389.961" y="208"/><text fill="#000000" font-family="sans-serif" font-size="14" lengthAdjust="spacingAndGlyphs" textLength="49" x="394.961" y="232.8467">S_ack1</text><rect fill="#FEFECE" filter="url(#f1)" height="40" rx="12.5" ry="12.5" style="stroke: #A80036; stroke-width: 1.5;" width="66" x="359.211" y="326"/><text fill="#000000" font-family="sans-serif" font-size="14" lengthAdjust="spacingAndGlyphs" textLength="56" x="364.211" y="350.8467">S_read2</text><rect fill="#FEFECE" filter="url(#f1)" height="40" rx="12.5" ry="12.5" style="stroke: #A80036; stroke-width: 1.5;" width="59" x="257.961" y="444"/><text fill="#000000" font-family="sans-serif" font-size="14" lengthAdjust="spacingAndGlyphs" textLength="49" x="262.961" y="468.8467">S_ack2</text><rect fill="#FEFECE" filter="url(#f1)" height="40" rx="12.5" ry="12.5" style="stroke: #A80036; stroke-width: 1.5;" width="62" x="148.711" y="562"/><text fill="#000000" font-family="sans-serif" font-size="14" lengthAdjust="spacingAndGlyphs" textLength="52" x="153.711" y="586.8467">S_calc1</text><rect fill="#FEFECE" filter="url(#f1)" height="40" rx="12.5" ry="12.5" style="stroke: #A80036; stroke-width: 1.5;" width="59" x="149.961" y="800"/><text fill="#000000" font-family="sans-serif" font-size="14" lengthAdjust="spacingAndGlyphs" textLength="49" x="154.961" y="824.8467">S_write</text><rect fill="#FEFECE" filter="url(#f1)" height="40" rx="12.5" ry="12.5" style="stroke: #A80036; stroke-width: 1.5;" width="62" x="148.711" y="681"/><text fill="#000000" font-family="sans-serif" font-size="14" lengthAdjust="spacingAndGlyphs" textLength="52" x="153.711" y="705.8467">S_calc2</text><path d="M530.211,28.293 C530.211,41.511 530.211,66.203 530.211,84.809 " fill="none" style="stroke: #A80036; stroke-width: 1.0;"/><polygon fill="#A80036" points="530.211,89.881,534.211,80.881,530.211,84.881,526.211,80.881,530.211,89.881" style="stroke: #A80036; stroke-width: 1.0;"/><path d="M497.114,116.513 C472.039,122.581 439.113,135.017 422.211,160 C413.917,172.26 413.12,188.865 414.421,202.477 " fill="none" style="stroke: #A80036; stroke-width: 1.0;"/><polygon fill="#A80036" points="415.037,207.723,417.9605,198.3181,414.4541,202.7571,410.0151,199.2507,415.037,207.723" style="stroke: #A80036; stroke-width: 1.0;"/><text fill="#000000" font-family="sans-serif" font-size="13" lengthAdjust="spacingAndGlyphs" textLength="78" x="423.211" y="173.0669">Exists = '1' /</text><text fill="#008000" font-family="sans-serif" font-size="13" lengthAdjust="spacingAndGlyphs" textLength="97" x="509.211" y="173.0669">NextA &lt;= D_in</text><path d="M414.753,248.155 C410.121,268.053 402.862,299.239 397.839,320.822 " fill="none" style="stroke: #A80036; stroke-width: 1.0;"/><polygon fill="#A80036" points="396.676,325.817,402.6111,317.9573,397.8089,320.947,394.8192,316.1448,396.676,325.817" style="stroke: #A80036; stroke-width: 1.0;"/><text fill="#000000" font-family="sans-serif" font-size="13" lengthAdjust="spacingAndGlyphs" textLength="18" x="408.211" y="291.0669">-- /</text><text fill="#008000" font-family="sans-serif" font-size="13" lengthAdjust="spacingAndGlyphs" textLength="89" x="434.211" y="291.0669">Rd_ack &lt;= '1'</text><path d="M374.873,366.155 C356.558,386.389 327.677,418.295 308.115,439.906 " fill="none" style="stroke: #A80036; stroke-width: 1.0;"/><polygon fill="#A80036" points="304.576,443.817,313.5821,439.8307,307.9322,440.1108,307.6521,434.4609,304.576,443.817" style="stroke: #A80036; stroke-width: 1.0;"/><text fill="#000000" font-family="sans-serif" font-size="13" lengthAdjust="spacingAndGlyphs" textLength="78" x="346.211" y="409.0669">Exists = '1' /</text><text fill="#008000" font-family="sans-serif" font-size="13" lengthAdjust="spacingAndGlyphs" textLength="10" x="432.211" y="409.0669">--</text><path d="M269.377,484.155 C250.539,504.389 220.833,536.295 200.712,557.906 " fill="none" style="stroke: #A80036; stroke-width: 1.0;"/><polygon fill="#A80036" points="197.072,561.817,206.1313,557.9531,200.4781,558.1566,200.2746,552.5034,197.072,561.817" style="stroke: #A80036; stroke-width: 1.0;"/><text fill="#000000" font-family="sans-serif" font-size="13" lengthAdjust="spacingAndGlyphs" textLength="18" x="241.211" y="527.0669">-- /</text><text fill="#008000" font-family="sans-serif" font-size="13" lengthAdjust="spacingAndGlyphs" textLength="194" x="267.211" y="527.0669">NextB &lt;= D_in; Rd_ack &lt;= '1'</text><path d="M148.331,592.381 C90.9608,611.54 -23.0847,658.753 13.2112,722 C41.3543,771.0406 104.935,797.6519 144.733,810.0447 " fill="none" style="stroke: #A80036; stroke-width: 1.0;"/><polygon fill="#A80036" points="149.944,811.6287,142.4948,805.186,145.1598,810.1757,140.17,812.8407,149.944,811.6287" style="stroke: #A80036; stroke-width: 1.0;"/><text fill="#000000" font-family="sans-serif" font-size="13" lengthAdjust="spacingAndGlyphs" textLength="92" x="14.2112" y="705.0669">CurrentA = 0 /</text><text fill="#008000" font-family="sans-serif" font-size="13" lengthAdjust="spacingAndGlyphs" textLength="10" x="114.2112" y="705.0669">--</text><path d="M179.211,602.058 C179.211,622.201 179.211,654.019 179.211,675.892 " fill="none" style="stroke: #A80036; stroke-width: 1.0;"/><polygon fill="#A80036" points="179.211,680.95,183.211,671.95,179.211,675.95,175.211,671.95,179.211,680.95" style="stroke: #A80036; stroke-width: 1.0;"/><text fill="#000000" font-family="sans-serif" font-size="13" lengthAdjust="spacingAndGlyphs" textLength="103" x="180.211" y="645.0669">CurrentA &lt;&gt; 0 /</text><text fill="#008000" font-family="sans-serif" font-size="13" lengthAdjust="spacingAndGlyphs" textLength="10" x="291.211" y="645.0669">--</text><path d="M209.973,690.368 C227.705,688.198 244.211,691.742 244.211,701 C244.211,709.318 230.887,713.023 215.322,712.116 " fill="none" style="stroke: #A80036; stroke-width: 1.0;"/><polygon fill="#A80036" points="209.973,711.632,218.5765,716.4257,214.9527,712.082,219.2965,708.4582,209.973,711.632" style="stroke: #A80036; stroke-width: 1.0;"/><text fill="#000000" font-family="sans-serif" font-size="13" lengthAdjust="spacingAndGlyphs" textLength="141" x="255.711" y="697.5669">CurrentA &gt; CurrentB /</text><text fill="#008000" font-family="sans-serif" font-size="13" lengthAdjust="spacingAndGlyphs" textLength="188" x="400.711" y="697.5669">NextA &lt;= CurrentA-CurrentB</text><text fill="#000000" font-family="sans-serif" font-size="13" lengthAdjust="spacingAndGlyphs" textLength="152" x="250.211" y="712.6997">CurrentA &lt;= CurrentB /</text><text fill="#008000" font-family="sans-serif" font-size="13" lengthAdjust="spacingAndGlyphs" textLength="188" x="406.211" y="712.6997">NextB &lt;= CurrentB-CurrentA</text><path d="M179.211,721.058 C179.211,741.2006 179.211,773.0194 179.211,794.8921 " fill="none" style="stroke: #A80036; stroke-width: 1.0;"/><polygon fill="#A80036" points="179.211,799.9497,183.211,790.9497,179.211,794.9497,175.211,790.9497,179.211,799.9497" style="stroke: #A80036; stroke-width: 1.0;"/><text fill="#000000" font-family="sans-serif" font-size="13" lengthAdjust="spacingAndGlyphs" textLength="92" x="180.211" y="765.0669">CurrentB = 0 /</text><text fill="#008000" font-family="sans-serif" font-size="13" lengthAdjust="spacingAndGlyphs" textLength="10" x="280.211" y="765.0669">--</text><path d="M208.504,809.8478 C226.336,807.4968 243.211,810.8809 243.211,820 C243.211,828.2642 229.351,831.8183 213.481,830.6622 " fill="none" style="stroke: #A80036; stroke-width: 1.0;"/><polygon fill="#A80036" points="208.504,830.1522,217.0505,835.0469,213.4781,830.6608,217.8642,827.0884,208.504,830.1522" style="stroke: #A80036; stroke-width: 1.0;"/><text fill="#000000" font-family="sans-serif" font-size="13" lengthAdjust="spacingAndGlyphs" textLength="62" x="249.211" y="824.0669">Full = '1' /</text><text fill="#008000" font-family="sans-serif" font-size="13" lengthAdjust="spacingAndGlyphs" textLength="10" x="319.211" y="824.0669">--</text><path d="M208.622,817.8612 C309.928,813.151 638.211,791.02 638.211,702 C638.211,227 638.211,227 638.211,227 C638.211,195.658 636.043,184.27 616.211,160 C603.689,144.674 585.027,133.221 568.285,125.257 " fill="none" style="stroke: #A80036; stroke-width: 1.0;"/><polygon fill="#A80036" points="563.62,123.103,570.1141,130.5075,568.1594,125.1991,573.4678,123.2445,563.62,123.103" style="stroke: #A80036; stroke-width: 1.0;"/><text fill="#000000" font-family="sans-serif" font-size="13" lengthAdjust="spacingAndGlyphs" textLength="62" x="639.211" y="468.0669">Full = '0' /</text><text fill="#008000" font-family="sans-serif" font-size="13" lengthAdjust="spacingAndGlyphs" textLength="216" x="709.211" y="468.0669">D_out &lt;= CurrentA; Wr_en &lt;= '1'</text></g></svg>